<?xml version="1.0" encoding="utf-8"?>
<!-- Generator: Adobe Illustrator 20.1.0, SVG Export Plug-In . SVG Version: 6.00 Build 0)  -->
<svg version="1.1" id="Layer_1" xmlns="http://www.w3.org/2000/svg" xmlns:xlink="http://www.w3.org/1999/xlink" x="0px" y="0px"
	 viewBox="0 0 650 120.7" style="enable-background:new 0 0 650 120.7;" xml:space="preserve">
<style type="text/css">
	.st0{fill:#FFFFFF;}
</style>
<g>
	<g>
		<path class="st0" d="M104.2,27.2L58.5,0.8c-2-1.1-5.9-1.1-7.8,0L32,11.6c-4.4,7.2-7.3,15.2-8.5,23.6c9.5-5.1,20.2-7.7,31.1-7.7
			c12.8,0,25.2,3.7,36,10.6c6.8,4.4,12.8,10.1,17.6,16.6V34C108.1,31.6,106.3,28.4,104.2,27.2z"/>
		<path class="st0" d="M58.3,119.8l45.8-26.3c2-1.1,3.9-4.5,3.9-6.8l0.1-21.5c-4-7.4-9.5-14-16.2-19.2c-0.4,10.8-3.4,21.3-8.9,30.8
			c-6.4,11.1-15.9,20-27.2,25.8c-7.3,3.7-15.1,6-23.2,6.8l17.9,10.4C52.5,121,56.3,121,58.3,119.8z"/>
		<path class="st0" d="M1,34.1l0.3,52.8c0,2.3,2,5.6,4,6.8L24,104.3c8.4,0.2,16.9-1.4,24.7-4.6c-9.2-5.7-16.9-13.5-22.4-22.9
			c-6.5-11.1-9.6-23.6-9-36.4c0.4-8.1,2.2-16.1,5.5-23.5L4.9,27.3C2.9,28.5,1,31.8,1,34.1z"/>
	</g>
	<path class="st0" d="M206.1,30.1c0.7,0,1.1,0.1,1.3,0.3c0.1,0.2,0.2,0.5,0.2,0.8c0,0.3-0.1,0.5-0.4,0.8c-0.2,0.2-0.8,0.3-1.8,0.3
		c-1.6,0-2.9,0.1-4,0.4c-1.1,0.2-1.9,0.7-2.5,1.2c-0.6,0.6-1,1.3-1.2,2.3c-0.2,0.9-0.4,2.1-0.4,3.4v43.4c0,2.5,0.4,4.3,1.2,5.3
		c0.8,1.1,2.4,1.6,4.7,1.6h7.7c1.8,0,3.5-0.1,5.2-0.4c1.7-0.3,3.4-0.9,5.1-1.8c1.5-0.8,3-2,4.3-3.5c1.3-1.5,2.5-3,3.5-4.5
		c1-1.5,1.8-2.8,2.4-3.9c0.6-1.1,0.9-1.7,1-1.9c0.3-0.6,0.6-1,0.8-1.2c0.3-0.2,0.5-0.3,0.8-0.3c0.6,0,1,0.3,1,0.9
		c0,0.2,0,0.5-0.1,0.7c-0.1,0.2-0.2,0.6-0.4,1.2l-3,10.2c-0.3,1.1-0.5,2.1-0.8,3.1c-0.2,0.9-0.4,1.7-0.5,2.3c-0.1,0.7-0.3,1-0.5,1.2
		c-0.2,0.1-0.8,0.2-1.6,0.2h-35.5c-3.3,0-5.8,0-7.4,0.1c-1.6,0.1-2.8,0.1-3.6,0.1c-0.8,0-1.2-0.1-1.4-0.4c-0.2-0.2-0.3-0.5-0.3-0.7
		c0-0.3,0.1-0.5,0.4-0.8c0.3-0.2,0.9-0.3,1.7-0.3c1.9,0,3.4-0.4,4.4-1.1c1.1-0.8,1.6-2.2,1.6-4.4V37.8c0-2.2-0.5-3.7-1.6-4.5
		c-0.5-0.3-1.1-0.8-2.4-0.8c-9.9,0-31.3,0-31.3,0v51.6c0,2.3,0.6,3.8,1.9,4.6c1.2,0.7,3.2,1.1,5.8,1.1c0.8,0,1.4,0.1,1.7,0.4
		c0.3,0.3,0.4,0.5,0.4,0.8c0,0.2-0.1,0.5-0.2,0.7c-0.1,0.2-0.6,0.4-1.4,0.4c-0.8,0-2.2,0-4.4-0.1c-2.2-0.1-4.9-0.1-8.3-0.1
		c-3.3,0-6,0-8.2,0.1c-2.2,0.1-3.7,0.1-4.5,0.1c-0.7,0-1.2-0.1-1.3-0.4c-0.2-0.2-0.3-0.5-0.3-0.7c0-0.3,0.1-0.6,0.4-0.8
		c0.3-0.3,0.9-0.4,1.7-0.4c0.9,0,1.8,0,2.7-0.1c0.9-0.1,1.7-0.3,2.4-0.7c0.7-0.4,1.3-0.9,1.8-1.6c0.5-0.7,0.7-1.6,0.7-2.8V32.6h-7.6
		c-3,0-5.6,0.5-7.6,1.4c-2.1,0.9-3.8,2-5.1,3.4c-1.4,1.3-2.5,2.7-3.3,4.2c-0.9,1.4-1.6,2.7-2.2,3.8c-0.2,0.4-0.4,0.6-0.6,0.8
		c-0.1,0.2-0.4,0.3-0.7,0.3c-0.6,0-0.9-0.3-0.9-0.9c0-0.2,0.1-0.5,0.2-1.1c0.1-0.6,0.3-1.2,0.5-2c0.2-0.8,0.4-1.6,0.6-2.5
		c0.2-0.9,0.4-1.8,0.6-2.6c0.1-0.6,0.3-1.3,0.4-2c0.2-0.8,0.4-1.5,0.5-2.3c0.2-0.7,0.3-1.4,0.4-2c0.1-0.6,0.2-0.9,0.2-1.1
		c0.1-0.4,0.2-0.7,0.4-1c0.1-0.2,0.4-0.4,0.8-0.4c0.5,0,0.9,0.1,1.2,0.3c0.3,0.2,0.8,0.4,1.6,0.6c0.8,0.2,2,0.4,3.6,0.6
		c1.6,0.2,4,0.3,7.2,0.3 M315.8,30.4c-0.2-0.2-0.6-0.4-1.2-0.4c-0.3,0-0.8,0-1.4,0c-0.6,0-1.3,0-2,0c-0.7,0-1.5,0-2.3,0
		c-0.8,0-1.5,0-2.2,0c-3.1,0-5.3,0-6.6,0c-1.2,0-2.1,0-2.5,0c-0.7,0-1.1,0.1-1.2,0.3c-0.1,0.2-0.2,0.4-0.2,0.7
		c0,0.3,0.1,0.6,0.4,0.8c0.3,0.2,0.8,0.4,1.6,0.4c1.4,0,2.6,0.4,3.6,1.2c1,0.8,1.5,2.1,1.5,3.9c0,1.2-0.2,2.4-0.5,3.6
		c-0.3,1.2-0.7,2.5-1.2,3.9l-11.6,34.6L275.4,42c-0.5-1.2-0.9-2.3-1.2-3.2c-0.3-1-0.4-1.9-0.4-2.8c0-1.5,0.6-2.5,1.8-3
		c1.2-0.5,2.8-0.7,4.7-0.7c0.6,0,1-0.1,1.3-0.4c0.3-0.2,0.4-0.5,0.4-0.7c0-0.7-0.4-1.1-1.3-1.1c-0.4,0-0.8,0-1.4,0
		c-0.6,0-1.3,0-2.3,0c-0.9,0-2.1,0-3.6,0c-1.5,0-3.2,0-5.4,0c-2.1,0-3.8,0-5.1,0c-1.3,0-2.3,0-3.1,0c-0.8,0-1.5,0-2,0
		c-0.5,0-1,0-1.4,0c-0.5,0-0.9,0.1-1,0.4c-0.1,0.2-0.2,0.5-0.2,0.8c0,0.2,0.1,0.4,0.4,0.6c0.2,0.2,0.7,0.4,1.3,0.4
		c2.2,0,3.9,0.5,5,1.5c1.1,1,2,2.5,2.7,4.3l3.2,8.4l-13.4,33L239.9,42c-0.3-0.8-0.6-1.7-1-2.9c-0.4-1.2-0.6-2.2-0.6-3.2
		c0-2.4,1.7-3.6,5.1-3.6c0.5,0,0.9-0.1,1.2-0.4c0.3-0.2,0.4-0.5,0.4-0.7c0-0.7-0.4-1.1-1.3-1.1c-0.4,0-0.8,0-1.2,0
		c-0.4,0-1.1,0-1.9,0c-0.8,0-1.8,0-3.2,0c-1.3,0-3,0-5.1,0c-2,0-3.7,0-5,0c-1.3,0-2.4,0-3.2,0c-0.8,0-1.5,0-2,0c-0.5,0-0.9,0-1.2,0
		c-0.5,0-0.9,0.1-1,0.3c-0.1,0.2-0.2,0.5-0.2,0.8c0,0.2,0.1,0.4,0.3,0.6c0.2,0.2,0.6,0.4,1.2,0.4c1.9,0.1,3.5,0.7,4.9,1.6
		c1.4,1,2.4,2.4,3.1,4.2l20.8,53.8c0.3,0.8,0.5,1.3,0.7,1.5c0.2,0.2,0.4,0.4,0.7,0.4c0.3,0,0.5-0.1,0.7-0.4c0.2-0.2,0.4-0.8,0.8-1.8
		l16.3-41.2l16.7,41.4c0.3,0.8,0.5,1.3,0.7,1.5c0.1,0.2,0.4,0.4,0.7,0.4c0.3,0,0.6-0.1,0.8-0.3c0.2-0.2,0.5-0.8,0.8-1.8l16.7-49.5
		c0.6-1.8,1.3-3.3,2-4.5c0.7-1.2,1.5-2.2,2.3-3c0.8-0.7,1.6-1.3,2.4-1.7c0.8-0.4,1.6-0.6,2.3-0.8c1.1-0.2,1.7-0.5,1.7-1.1
		C316.1,30.9,316,30.7,315.8,30.4z"/>
	<path class="st0" d="M366.7,68.7c-0.9-1.7-2.1-3.2-3.6-4.4c-1.5-1.2-3.2-2.2-5-2.9c-1.9-0.8-3.8-1.5-5.8-2.2c-2-0.7-3.9-1.3-5.8-2
		c-1.9-0.7-3.6-1.5-5-2.5c-1.5-1-2.7-2.2-3.6-3.5c-0.9-1.4-1.4-3.2-1.4-5.3c0-1.6,0.3-3.2,0.9-4.7c0.6-1.5,1.5-2.8,2.7-3.9
		c1.2-1.1,2.6-2,4.4-2.7c1.7-0.7,3.7-1,6-1c4.2,0,8.1,0.8,11.7,2.3c0.2,5.1,0.4,7.8,0.4,8.3c0.1,1.4,0.7,2.1,1.9,2.1h2.2V33.7
		c-5.6-2.4-11-3.6-16.2-3.6c-2.9,0-5.5,0.4-7.7,1.4c-2.3,0.9-4.2,2.1-5.7,3.6c-1.5,1.5-2.7,3.2-3.5,5.2c-0.8,1.9-1.2,4-1.2,6.1
		c0,2.7,0.4,4.9,1.4,6.7c0.9,1.8,2.1,3.3,3.6,4.5c1.5,1.2,3.2,2.2,5,2.9c1.9,0.8,3.8,1.5,5.8,2.1c1.9,0.6,3.9,1.2,5.8,1.9
		c1.9,0.6,3.5,1.5,5,2.4c1.5,1,2.7,2.2,3.6,3.6c0.9,1.4,1.4,3.2,1.4,5.5c0,2-0.4,3.9-1.1,5.7c-0.7,1.8-1.7,3.3-3.1,4.6
		c-1.3,1.3-3,2.3-4.9,3.1c-2,0.8-4.2,1.1-6.7,1.1c-4.9,0-9.1-0.8-12.5-2.4c-0.1-1.2-0.1-2.5-0.2-3.9c-0.1-1.4-0.1-2.6-0.2-3.6
		c0-0.9-0.1-1.5-0.1-1.6c-0.1-1.4-0.7-2.1-1.9-2.1h-2.2v11.8v1.1v1.2c5.4,2.3,11.1,3.4,16.9,3.4c3.2,0,6-0.5,8.5-1.5
		c2.5-1,4.6-2.3,6.3-4.1c1.7-1.7,3-3.7,3.9-6.1c0.9-2.3,1.3-4.8,1.3-7.4C368,72.5,367.6,70.4,366.7,68.7z"/>
	<path class="st0" d="M393.3,90.6c-2.6,0-4.9-0.5-6.9-1.3c-2-0.9-3.6-2.2-4.9-3.9c-1.3-1.7-2.3-3.7-3-6.1c-0.7-2.4-1-5-1-8
		c0-2.9,0.3-5.6,1-8c0.7-2.4,1.7-4.4,3-6.1c1.3-1.7,3-3,4.9-3.9c2-0.9,4.3-1.4,6.9-1.4c2.6,0,4.9,0.5,6.9,1.4c2,0.9,3.6,2.2,4.9,3.9
		c1.3,1.7,2.3,3.7,2.9,6.1c0.6,2.4,1,5,1,8c0,2.9-0.3,5.6-1,8c-0.7,2.4-1.6,4.4-2.9,6.1c-1.3,1.7-2.9,3-4.9,3.9
		C398.3,90.2,396,90.6,393.3,90.6z M393.3,48.6c-3.2,0-6,0.5-8.5,1.6c-2.5,1.1-4.6,2.6-6.3,4.6c-1.7,2-3,4.4-3.9,7.1
		c-0.9,2.8-1.4,5.9-1.4,9.4c0,3.5,0.5,6.6,1.4,9.3c0.9,2.8,2.2,5.2,3.9,7.1c1.7,2,3.8,3.5,6.3,4.6c2.5,1.1,5.3,1.6,8.5,1.6
		c3.2,0,6-0.5,8.5-1.6c2.5-1.1,4.6-2.6,6.3-4.6c1.7-2,3-4.4,3.9-7.1c0.9-2.8,1.4-5.9,1.4-9.3c0-3.5-0.4-6.6-1.4-9.4
		c-0.9-2.8-2.2-5.2-3.9-7.1c-1.7-2-3.8-3.5-6.3-4.6C399.3,49.2,396.5,48.6,393.3,48.6z"/>
	<path class="st0" d="M431.1,90.1c-0.1,0-0.3,0-0.5,0c-0.2,0-0.4,0-0.7,0c-0.3,0-0.7,0-1.3,0c-0.6,0-1.4-0.1-2.2-0.1V29h-4.2h-6.4
		v1.8c0,1,0.6,1.5,1.8,1.6c0.1,0,0.3,0,0.5,0c0.2,0,0.4,0,0.7,0c0.3,0,0.7,0,1.3,0.1c0.6,0,1.4,0.1,2.2,0.1v57.4
		c-1,0-1.9,0.1-2.6,0.1c-0.7,0-1.2,0-1.4,0.1c-0.2,0-0.4,0-0.6,0c-1.2,0.1-1.8,0.6-1.8,1.6v1.8h6.4h4.2h6.4v-1.8
		C432.8,90.6,432.2,90.1,431.1,90.1z"/>
	<path class="st0" d="M452.4,90.1c-0.1,0-0.3,0-0.5,0c-0.2,0-0.4,0-0.7,0c-0.3,0-0.7,0-1.3,0c-0.6,0-1.4-0.1-2.2-0.1V49.3h-4.2h-6.4
		v1.8c0,1,0.6,1.5,1.8,1.6c0.1,0,0.3,0,0.5,0c0.2,0,0.4,0,0.7,0c0.3,0,0.7,0,1.3,0c0.6,0,1.4,0.1,2.2,0.1v37.1c-1,0-1.9,0.1-2.6,0.1
		c-0.7,0-1.2,0-1.4,0.1c-0.2,0-0.4,0-0.6,0c-1.2,0.1-1.8,0.6-1.8,1.6v1.8h6.4h4.2h6.4v-1.8C454.1,90.6,453.5,90.1,452.4,90.1z
		 M442.9,36.8c0.4,0.4,0.8,0.6,1.2,0.8c0.5,0.2,1,0.3,1.5,0.3c0.5,0,1-0.1,1.5-0.3c0.5-0.2,0.9-0.5,1.2-0.8c0.4-0.4,0.6-0.8,0.9-1.2
		c0.2-0.5,0.3-1,0.3-1.5c0-0.5-0.1-1-0.3-1.5c-0.2-0.5-0.5-0.9-0.9-1.3c-0.3-0.3-0.8-0.6-1.2-0.8c-0.5-0.2-1-0.3-1.5-0.3
		c-0.5,0-1,0.1-1.5,0.3c-0.5,0.2-0.9,0.5-1.2,0.8c-0.4,0.4-0.6,0.8-0.8,1.3c-0.2,0.5-0.3,1-0.3,1.5c0,0.5,0.1,1,0.3,1.5
		C442.3,36.1,442.6,36.5,442.9,36.8z"/>
	<path class="st0" d="M490.4,86.3c-0.2-0.3-0.5-0.4-0.9-0.4c-0.3,0-0.7,0.2-1.3,0.8c-0.5,0.5-1.3,1.1-2.2,1.6
		c-0.9,0.6-2.1,1.1-3.5,1.6c-1.4,0.5-3.2,0.8-5.3,0.8c-2.3,0-4.4-0.4-6.3-1.3c-1.9-0.9-3.5-2.1-4.8-3.7c-1.3-1.6-2.3-3.7-3.1-6.1
		c-0.7-2.4-1.1-5.1-1.1-8.2c0-3,0.4-5.7,1.1-8.1c0.7-2.4,1.7-4.4,3.1-6.1c1.3-1.7,3-3,5-3.9c2-0.9,4.2-1.4,6.8-1.4
		c2.2,0,4.7,0.5,7.5,1.5c0.1,1.2,0.1,2.3,0.2,3.3c0.1,1.1,0.2,1.9,0.2,2.5c0.1,0.6,0.1,1,0.1,1.1c0.1,1.4,0.7,2.1,1.9,2.1h2.2V51.4
		l-2.3-0.7c-1.5-0.5-3.3-0.9-5.4-1.4c-2.1-0.5-3.6-0.7-4.6-0.7c-3.2,0-6,0.5-8.5,1.7c-2.5,1.1-4.5,2.7-6.2,4.7c-1.7,2-3,4.4-3.9,7.2
		c-0.9,2.8-1.3,5.8-1.3,9.2c0,3.6,0.5,6.8,1.4,9.6c0.9,2.8,2.2,5.2,3.9,7.1c1.7,1.9,3.7,3.4,6,4.4c2.3,1,4.9,1.5,7.7,1.5
		c1.7,0,3.2-0.2,4.8-0.5c1.5-0.3,2.9-0.7,4.2-1.3c1.3-0.6,2.5-1.2,3.5-2c1-0.8,1.9-1.6,2.6-2.5L490.4,86.3z"/>
	<path class="st0" d="M511,90.1c-0.1,0-0.3,0-0.5,0c-0.2,0-0.4,0-0.7,0c-0.3,0-0.7,0-1.3,0c-0.6,0-1.4-0.1-2.2-0.1V49.3h-4.2h-6.4
		v1.8c0,1,0.6,1.5,1.8,1.6c0.1,0,0.3,0,0.5,0c0.2,0,0.4,0,0.7,0c0.3,0,0.7,0,1.3,0c0.6,0,1.4,0.1,2.2,0.1v37.1c-1,0-1.9,0.1-2.6,0.1
		c-0.7,0-1.2,0-1.4,0.1c-0.2,0-0.4,0-0.6,0c-1.2,0.1-1.8,0.6-1.8,1.6v1.8h6.4h4.2h6.4v-1.8C512.7,90.6,512.1,90.1,511,90.1z
		 M501.5,36.8c0.4,0.4,0.8,0.6,1.2,0.8c0.5,0.2,1,0.3,1.5,0.3c0.5,0,1-0.1,1.5-0.3c0.5-0.2,0.9-0.5,1.2-0.8c0.4-0.4,0.6-0.8,0.9-1.2
		c0.2-0.5,0.3-1,0.3-1.5c0-0.5-0.1-1-0.3-1.5c-0.2-0.5-0.5-0.9-0.9-1.3c-0.3-0.3-0.8-0.6-1.2-0.8c-0.5-0.2-1-0.3-1.5-0.3
		c-0.5,0-1,0.1-1.5,0.3c-0.5,0.2-0.9,0.5-1.2,0.8c-0.4,0.4-0.6,0.8-0.8,1.3c-0.2,0.5-0.3,1-0.3,1.5c0,0.5,0.1,1,0.3,1.5
		C500.9,36.1,501.1,36.5,501.5,36.8z"/>
	<path class="st0" d="M531.2,94.1c1.9,0,3.7-0.4,5.4-1.1c1.7-0.8,3.2-1.8,4.3-3l-1.2-1.9c-0.2-0.3-0.5-0.5-0.7-0.5
		c-0.2,0-0.5,0.2-0.8,0.5c-0.4,0.3-0.8,0.6-1.4,1c-0.6,0.4-1.2,0.7-2,1c-0.8,0.3-1.7,0.5-2.8,0.5c-0.9,0-1.6-0.1-2.4-0.4
		c-0.7-0.3-1.4-0.7-1.9-1.2c-0.5-0.6-1-1.3-1.3-2.2c-0.3-0.9-0.5-1.9-0.5-3.1V53.8h13.9v-3.1H526V33.9h-2c-0.3,0-0.6,0.1-0.8,0.3
		c-0.2,0.2-0.3,0.4-0.3,0.7l-1.1,15.8l-7.5,0.5v1.6c0,0.3,0.1,0.6,0.3,0.8c0.2,0.2,0.5,0.3,0.8,0.3h6.3V84c0,3.5,0.8,6,2.5,7.7
		C525.9,93.3,528.2,94.1,531.2,94.1z"/>
	<path class="st0" d="M562.4,90.6c-2.6,0-4.9-0.5-6.9-1.3c-2-0.9-3.6-2.2-4.9-3.9c-1.3-1.7-2.3-3.7-3-6.1c-0.7-2.4-1-5-1-8
		c0-2.9,0.3-5.6,1-8c0.7-2.4,1.7-4.4,3-6.1c1.3-1.7,3-3,4.9-3.9c2-0.9,4.3-1.4,6.9-1.4c2.6,0,4.9,0.5,6.9,1.4c2,0.9,3.6,2.2,4.9,3.9
		c1.3,1.7,2.3,3.7,2.9,6.1c0.7,2.4,1,5,1,8c0,2.9-0.3,5.6-1,8c-0.7,2.4-1.6,4.4-2.9,6.1c-1.3,1.7-3,3-4.9,3.9
		C567.4,90.2,565.1,90.6,562.4,90.6z M562.4,48.6c-3.2,0-6,0.5-8.5,1.6c-2.5,1.1-4.6,2.6-6.3,4.6c-1.7,2-3,4.4-3.9,7.1
		c-0.9,2.8-1.4,5.9-1.4,9.4c0,3.5,0.5,6.6,1.4,9.3c0.9,2.8,2.2,5.2,3.9,7.1c1.7,2,3.8,3.5,6.3,4.6c2.5,1.1,5.3,1.6,8.5,1.6
		c3.2,0,6-0.5,8.5-1.6c2.5-1.1,4.6-2.6,6.3-4.6c1.7-2,3-4.4,3.9-7.1c0.9-2.8,1.4-5.9,1.4-9.3c0-3.5-0.4-6.6-1.4-9.4
		c-0.9-2.8-2.2-5.2-3.9-7.1c-1.7-2-3.8-3.5-6.3-4.6C568.4,49.2,565.6,48.6,562.4,48.6z"/>
	<path class="st0" d="M613.7,49c-1.1-0.3-2.3-0.4-3.7-0.4c-3.5,0-6.4,1-8.7,3c-2.4,2-4.3,4.8-5.7,8.4l-0.4-9.3
		c0-0.5-0.2-0.9-0.4-1.1c-0.2-0.2-0.6-0.3-1.1-0.3h-2.2l0,0h-6.4v1.8c0,1.1,0.7,1.5,1.8,1.6c0.5,0,1,0,4.6,0.2v37.1
		c-3.6,0.1-4.1,0.2-4.6,0.2c-1.1,0.1-1.8,0.4-1.8,1.6v1.8h6.4h4.2v0h6.4v-1.8c0-1.1-0.7-1.5-1.8-1.6c-0.6,0-1,0-4.6-0.2V64.7
		c1.3-3.9,3.1-6.9,5.2-8.9c2.1-2.1,4.9-3.1,8.2-3.1c0.9,0,1.7,0.1,2.4,0.2c0.7,0.1,1.3,0.2,1.8,0.4c0.5,0.1,0.9,0.3,1.2,0.4
		c0.3,0.1,0.6,0.2,0.7,0.2c0.5,0,0.8-0.2,0.9-0.7l0.6-2.9C615.9,49.7,614.8,49.3,613.7,49z"/>
	<path class="st0" d="M648.9,76c-0.7-1.2-1.6-2.3-2.8-3.2c-1.2-0.9-2.5-1.6-3.9-2.1c-1.5-0.6-3-1.1-4.5-1.6c-1.5-0.5-3-0.9-4.5-1.4
		c-1.5-0.5-2.8-1-3.9-1.7c-1.2-0.6-2.1-1.4-2.8-2.3c-0.7-0.9-1.1-2.1-1.1-3.4c0-1.1,0.3-2.2,0.8-3.2c0.5-1,1.2-1.9,2.2-2.7
		c0.9-0.8,2-1.4,3.4-1.8c1.3-0.5,2.8-0.7,4.4-0.7c2.3,0,4.6,0.4,7,1.2c0.1,1.1,0.1,2.1,0.2,3.1c0.1,1,0.1,1.7,0.2,2.3
		c0.1,0.6,0.1,0.9,0.1,1c0.1,1.4,0.7,2.1,1.9,2.1h2.2V51c-4.6-1.6-8.5-2.4-11.7-2.4c-2.2,0-4.3,0.3-6.1,1c-1.8,0.6-3.3,1.5-4.6,2.6
		c-1.3,1.1-2.2,2.4-2.9,3.8c-0.7,1.4-1,2.9-1,4.5c0,1.8,0.4,3.4,1.1,4.6c0.7,1.2,1.6,2.3,2.8,3.1c1.1,0.9,2.5,1.6,3.9,2.1
		c1.5,0.6,3,1.1,4.5,1.6c1.5,0.5,3.1,0.9,4.5,1.4c1.5,0.5,2.8,1.1,3.9,1.7c1.2,0.7,2.1,1.5,2.8,2.5c0.7,1,1.1,2.2,1.1,3.7
		c0,1.3-0.3,2.6-0.7,3.8c-0.5,1.2-1.2,2.2-2.2,3.1c-0.9,0.9-2.1,1.6-3.5,2.1c-1.4,0.5-3.1,0.8-4.9,0.8c-3.4,0-6.2-0.5-8.6-1.4
		c-0.1-1.1-0.1-2.2-0.2-3.1c-0.1-1-0.2-1.8-0.2-2.3c-0.1-0.6-0.1-0.9-0.1-1c-0.1-1.4-0.7-2.1-1.9-2.1h-2.2v10.7
		c4.3,1.6,8.6,2.4,13,2.4c2.4,0,4.6-0.4,6.5-1.1c1.9-0.7,3.5-1.7,4.8-2.9c1.3-1.2,2.3-2.6,3-4.3c0.7-1.7,1-3.4,1-5.4
		C650,78.7,649.6,77.2,648.9,76z"/>
</g>
</svg>
